<svg version="1.1" id="Layer_1" xmlns="http://www.w3.org/2000/svg" xmlns:xlink="http://www.w3.org/1999/xlink" x="0px" y="0px"
	 viewBox="0 0 650 650" style="enable-background:new 0 0 650 650;" xml:space="preserve">
    <style type="text/css">
    	.st0{fill:none;stroke:#DCDCDC;stroke-width:6;stroke-miterlimit:10;}
    	.st1{fill:#222222;}
    	.st2{font-family:'DS3DisplaySans';}
    	.st3{font-size:48px;}
    	.st4{fill:#F1F8FC;stroke:#00B2FF;stroke-width:6;stroke-miterlimit:10;}
    </style>
    <line class="st0" x1="330.2" y1="333.6" x2="330.2" y2="103.9"/>
    <line class="st0" x1="330.2" y1="333.6" x2="150.6" y2="190.4"/>
    <line class="st0" x1="330.2" y1="333.6" x2="106.2" y2="384.7"/>
    <line class="st0" x1="330.2" y1="333.6" x2="230.5" y2="540.6"/>
    <line class="st0" x1="330.2" y1="333.6" x2="429.9" y2="540.6"/>
    <line class="st0" x1="330.2" y1="333.6" x2="554.2" y2="384.7"/>
    <line class="st0" x1="330.2" y1="333.6" x2="509.8" y2="190.4"/>
    <text transform="matrix(1 0 0 1 283.0117 83.7773)" class="st1 st2 st3">Tech</text>
    <text transform="matrix(1 0 0 1 67.874 170.3501)" class="st1 st2 st3">Climate</text>
    <text transform="matrix(1 0 0 1 4.6943 433.2314)" class="st1 st2 st3">Healthcare</text>
    <text transform="matrix(1 0 0 1 69.332 596.2637)" class="st1 st2 st3">Gun Control</text>
    <text transform="matrix(1 0 0 1 371.3447 596.2637)" class="st1 st2 st3">Immigration</text>
    <text transform="matrix(1 0 0 1 516.0344 433.2314)" class="st1 st2 st3">Taxes</text>
    <text transform="matrix(1 0 0 1 450.4639 171.3501)" class="st1 st2 st3">Abortion</text>
    <path id='uit-large' class="st4" d="M192,222.4c-16,38.9,45.3,74.4,57.5,128.1c12.3,53.7-27.6,112.3,3.7,140.3c31.3,28.1,112.3,26,152.8,0
    	c40.5-26,37.2-76.2,49.5-129.9s36.9-97.5,11.8-138.5s-82.6-66.3-137.6-66.3S208,183.5,192,222.4"/>
    <path id='uit-small' style='opacity: 0;' class="st4" d="M262.3,277.6c-11.2,17.4,8.3,41.6,14.6,69.2c6.3,27.6,0.7,60.9,16.9,68.7c16.2,7.8,38.7-17.4,64.2-29.6
    	c25.5-12.3,56.6-12.1,63.2-31.7s-12.7-47.4-30.3-66.2C373.2,269,358.7,262,333,260C307.3,257.9,273.5,260.2,262.3,277.6"/>
</svg>
