<?xml version="1.0" encoding="utf-8"?>
<!-- Generator: Adobe Illustrator 20.1.0, SVG Export Plug-In . SVG Version: 6.00 Build 0)  -->
<svg version="1.1" id="Layer_1" xmlns="http://www.w3.org/2000/svg" xmlns:xlink="http://www.w3.org/1999/xlink" x="0px" y="0px"
	 viewBox="0 0 650 650" style="enable-background:new 0 0 650 650;" xml:space="preserve">
<style type="text/css">
	.st0{fill:none;stroke:#DCDCDC;stroke-width:6;stroke-miterlimit:10;}
	.st1{fill:#FFFFFF;}
	.st2{fill:#FFFFFF;stroke:#00B2FF;stroke-width:6;stroke-miterlimit:10;}
	.st3{fill:#222222;}
	.st4{font-family:'DS3DisplaySans';}
	.st5{font-size:48px;}
	.st6{fill:#00B2FF;}
</style>
<line class="st0" x1="330.2" y1="333.6" x2="330.2" y2="103.9"/>
<line class="st0" x1="330.2" y1="333.6" x2="150.6" y2="190.4"/>
<line class="st0" x1="330.2" y1="333.6" x2="106.2" y2="384.7"/>
<line class="st0" x1="330.2" y1="333.6" x2="230.5" y2="540.6"/>
<line class="st0" x1="330.2" y1="333.6" x2="429.9" y2="540.6"/>
<line class="st0" x1="330.2" y1="333.6" x2="554.2" y2="384.7"/>
<line class="st0" x1="330.2" y1="333.6" x2="509.8" y2="190.4"/>
<rect x="192.1" y="239.7" class="st1" width="146.2" height="46.6"/>
<rect x="331.9" y="369.7" class="st1" width="107.3" height="46.6"/>
<circle class="st2" cx="382.1" cy="346.7" r="16"/>
<circle class="st2" cx="177.1" cy="213.7" r="16"/>
<text transform="matrix(1 0 0 1 283.0117 83.7773)" class="st3 st4 st5">Tech</text>
<text transform="matrix(1 0 0 1 67.874 170.3501)" class="st3 st4 st5">Climate</text>
<text transform="matrix(1 0 0 1 4.6943 433.2314)" class="st3 st4 st5">Healthcare</text>
<text transform="matrix(1 0 0 1 69.332 596.2637)" class="st3 st4 st5">Gun Control</text>
<text transform="matrix(1 0 0 1 371.3447 596.2637)" class="st3 st4 st5">Immigration</text>
<text transform="matrix(1 0 0 1 516.0344 433.2314)" class="st3 st4 st5">Taxes</text>
<text transform="matrix(1 0 0 1 450.4639 171.3501)" class="st3 st4 st5">Abortion</text>
<text transform="matrix(1 0 0 1 340.5279 408.068)" class="st6 st4 st5">Less</text>
<text transform="matrix(1 0 0 1 4.7248 276.6378)" class="st6 st4 st5">More progressive</text>
</svg>
